<svg width="749.373" height="296.773" viewBox="0 0 749.373 296.773" xmlns="http://www.w3.org/2000/svg"><path d="M5620.28 132.551C5620.28 59.648 5560.63 0 5487.73 0H132.555C59.648 0 0 59.648 0 132.551V2093.25c0 72.9 59.648 132.55 132.555 132.55H5487.73c72.9 0 132.55-59.65 132.55-132.55z" style="fill:#2b3457;fill-opacity:1;fill-rule:evenodd;stroke:none" transform="matrix(.13333 0 0 -.13333 0 296.773)"/><path d="M3834.68 1732.75v-94.4l-57.86-122.25h-17.48l40.75 110.69 10.09 27.27h-59.48v78.69zm20.25 20.25h-124.48v-119.19h50.64l-50.64-138.18h59.09l65.39 138.18zM450.871 1227.21h96.82v440.66h134.387v71.85H313.531v-71.85h137.34zm123.383-26.56H424.309v440.66h-137.34v124.97h421.676v-124.97H574.254zm507.756 26.69h92.4V1740h-94.61v-204.26H901.824V1740h-93.129v-512.66h93.864v232.91h179.451zm119.02-26.62h-145.65v232.91H929.188v-232.91H782.066v565.91h146.387v-204.26h124.717v204.26h147.86zm128.87 26.51h349.77v74.31h-258.15v153.82h165.54v72.1h-167v141.31h242.84v72.11h-333zm376.28-26.51h-402.79v566.67h386.02v-125.13h-242.84v-88.3h167v-125.11h-165.54v-100.8h258.15zM449.191 414.641l-100.464 41.668v32.82l144.996-61.09v-26.82l-144.996-61.071v32.821zm104.176 70.218h22.547v54.801h39.672v-54.801h29.113v-29.121h-29.113V377.25c0-4.84 0-12.84 19.98-12.84 2.282 0 2.852 0 11.129.871v-31.109c-16.261-2.012-17.98-2.293-23.972-2.293-17.125 0-46.809 2.293-46.809 41.383v82.476h-22.547zm119.516 58.223h40.234v-61.363l-.566-20.547h1.715c11.418 20.258 26.254 27.398 41.957 27.398 11.98 0 22.832-4.859 29.394-14.84 6.848-10.269 6.848-21.98 6.848-31.398V333.59h-39.957v97.332c0 9.129-.285 22.547-13.699 22.547-9.418 0-14.555-4.86-25.692-14.848V333.59h-40.234zM898.98 423.488c0 22.84-.289 40.25-20.269 40.25-18.832 0-18.547-21.129-18.266-40.25zm-38.535-22.547c-.281-15.41-.281-41.382 27.688-41.382 12.273 0 22.262 2.293 40.242 11.14l4.281-30.258c-15.41-5.421-27.968-9.992-47.949-9.992-18.547 0-49.094 4-58.227 38.821-2.847 11.14-3.703 29.109-3.703 30.261 0 26.539 0 51.36 10.27 68.199 11.699 19.418 33.969 21.399 46.238 21.399 24.543 0 36.246-10.258 43.668-21.399 9.133-13.41 9.133-27.679 9.133-66.789zm253.575 10c-8.85-1.722-37.68-7.14-37.68-33.109 0-10.273 6.28-18.551 15.98-18.551 18.27 0 21.7 18.27 21.7 28.258zm-74.5 57.649c12.85 9.98 25.69 19.98 57.94 19.98 10.56 0 33.11-2.57 45.38-14.84 11.42-11.421 11.42-22.839 11.42-30.82v-74.211c0-.859 1.14-9.14 8.85-9.418v-27.402h-11.71c-19.4 0-27.4 11.992-31.1 18.832h-1.14c-4.86-6.281-7.71-9.691-13.99-13.41-2-1.141-13.13-7.699-26.26-7.699-15.98 0-40.52 8.277-40.52 43.089 0 13.989 5.13 36.25 32.53 48.809 14.55 6.559 29.97 9.699 43.38 10.551 0 14.847 0 19.121-2.85 23.129-2.57 3.711-8.85 6.558-16.56 6.558-17.41 0-28.25-9.418-36.53-16.547zm222.55-22.539c-3.43 3.129-13.41 11.41-23.41 11.41-15.41 0-15.41-14.852-15.41-39.961 0-18.828 0-29.68.86-35.391 1.99-12.558 8.56-15.398 15.41-15.398 11.7 0 18.84 7.699 22.55 11.687zm0 20.25v76.781h40.53V333.59h-37.68v24.539h-1.71c-13.7-23.109-26.83-26.82-41.67-26.82-26.83 0-35.11 21.402-37.39 34.25-2 11.41-2 25.691-2 36.812 0 27.688 0 44.809 3.14 58.801 3.43 15.988 14.84 27.957 35.68 27.957 25.12 0 34.54-14.828 39.67-22.828zm109.16 18.558 15.41-59.66 6-24.258h1.43c2.84 11.707 3.41 15.129 6.55 27.118l14.28 56.8h38.53l-39.96-151.269h-38.82l-42.53 151.269zm189.1-61.371c0 22.84-.28 40.25-20.25 40.25-18.84 0-18.56-21.129-18.27-40.25zm-38.52-22.547c-.29-15.41-.29-41.382 27.68-41.382 12.27 0 22.26 2.293 40.24 11.14l4.29-30.258c-15.42-5.421-27.97-9.992-47.95-9.992-18.56 0-49.09 4-58.23 38.821-2.86 11.14-3.71 29.109-3.71 30.261 0 26.539 0 51.36 10.28 68.199 11.7 19.418 33.96 21.399 46.24 21.399 24.54 0 36.24-10.258 43.66-21.399 9.14-13.41 9.14-27.679 9.14-66.789zm106.75 83.918h37.1v-27.968h.86c8.84 16.257 23.39 31.109 43.38 31.109 38.24 0 38.24-32.262 38.24-43.66V333.59h-40.24v98.762c0 5.988.28 20.546-13.13 20.546-11.42 0-18.27-7.429-25.97-15.707V333.59h-40.24zm143.55 0h22.55v54.801h39.67v-54.801h29.11v-29.121h-29.11V377.25c0-4.84 0-12.84 19.98-12.84 2.28 0 2.85 0 11.13.871v-31.109c-16.27-2.012-17.98-2.293-23.98-2.293-17.12 0-46.8 2.293-46.8 41.383v82.476h-22.55zm241.03 0V333.59h-36.54v25.691h-1.72c-8.56-14.269-19.4-29.402-43.66-29.402-35.96 0-37.39 29.68-37.39 40.242v114.738h39.95v-98.468c0-10.27 2.28-21.11 13.7-21.11 4.57 0 10.86 2.84 12.85 3.989 7.14 3.992 10.56 8.839 12.84 11.699v103.89zm31.8 0h38.24v-34.25h1.14c14.27 33.102 30.55 37.672 45.1 38.243v-52.231c-16.83 0-27.4 0-43.67-13.699V333.59h-40.81zm190.41-61.371c0 22.84-.28 40.25-20.25 40.25-18.84 0-18.56-21.129-18.27-40.25zm-38.52-22.547c-.29-15.41-.29-41.382 27.68-41.382 12.27 0 22.26 2.293 40.25 11.14l4.28-30.258c-15.42-5.421-27.97-9.992-47.95-9.992-18.56 0-49.09 4-58.23 38.821-2.85 11.14-3.71 29.109-3.71 30.261 0 26.539 0 51.36 10.28 68.199 11.7 19.418 33.96 21.399 46.23 21.399 24.55 0 36.25-10.258 43.67-21.399 9.14-13.41 9.14-27.679 9.14-66.789zm229.33-22.543c3.71-3.988 10.86-11.687 22.56-11.687 15.98 0 16.55 13.98 16.55 44.508 0 34.25-.57 46.242-15.7 46.242-7.42 0-11.7-2.281-23.41-11.41zm-40.24 164.684h40.24v-76.781h.86c19.13 22.551 33.11 22.828 40.54 22.828 35.95 0 38.24-33.668 38.24-57.078l.28-23.11c0-17.132-.28-31.39-1.99-43.382-1.15-7.129-6.85-34.25-38.82-34.25-17.7 0-31.11 10.562-39.96 26.82h-1.71V333.59h-37.68zm229.45-119.594c0 22.84-.28 40.25-20.26 40.25-18.84 0-18.56-21.129-18.26-40.25zm-38.52-22.547c-.3-15.41-.3-41.382 27.68-41.382 12.27 0 22.25 2.293 40.24 11.14l4.29-30.258c-15.43-5.421-27.98-9.992-47.95-9.992-18.56 0-49.1 4-58.23 38.821-2.86 11.14-3.72 29.109-3.72 30.261 0 26.539 0 51.36 10.29 68.199 11.69 19.418 33.95 21.399 46.22 21.399 24.56 0 36.25-10.258 43.68-21.399 9.13-13.41 9.13-27.679 9.13-66.789zm177.63 40.25c-3.42 4.86-15.13 9.7-21.41 9.7-9.13 0-13.12-4.84-14.85-9.981-1.98-5.711-2.84-21.129-2.84-26.269 0-5.422.86-26.821 2.84-32.25 2.86-7.981 8.86-10.84 14.85-10.84 11.12 0 17.99 7.429 21.41 10.84zm-49.96-118.16c4.01-5.14 10.57-13.98 24.27-13.98 6.57 0 18.84 2.859 23.4 12.84 2.01 4.57 2.29 9.988 2.29 17.418v22.832h-1.43c-8.56-12.852-21.41-21.7-40.82-21.7-17.12 0-29.11 12.571-33.1 23.11-3.14 8.281-3.14 19.418-3.14 26.269v42.231c0 14.558 0 57.949 38.24 57.949 15.13 0 22.83-6.57 28.26-11.129 5.14-4.289 8.57-8.859 13.42-17.699h1.13v25.68h37.68V358.43c0-28.828-.29-74.5-63.08-74.5-34.25 0-48.23 15.129-51.94 24.269zm129.6 161.828h39.39V333.59h-39.39zm39.39 25.121h-39.39v34.25h39.39zm48.51-25.121h37.11v-27.968h.85c8.84 16.257 23.41 31.109 43.39 31.109 38.24 0 38.24-32.262 38.24-43.66V333.59h-40.25v98.762c0 5.988.3 20.546-13.12 20.546-11.42 0-18.27-7.429-25.97-15.707V333.59h-40.25zm223.53-36.25c-13.42 9.129-19.97 12.27-29.4 12.27-9.41 0-15.41-4.27-15.41-11.699 0-8.27 8.56-12.27 20.27-17.41 21.4-9.711 46.24-21.7 46.24-53.938 0-38.523-34.54-48.23-51.38-48.23-27.4 0-42.81 12.269-50.81 18.839l17.99 27.399c7.7-8 16.84-17.129 31.96-17.129 12 0 15.71 8 15.71 13.418 0 8.562-6 11.121-17.99 16.832-33.11 15.41-47.37 29.391-47.37 53.078 0 15.133 6.27 30.262 21.4 39.391 12.27 7.422 22.54 7.422 30.54 7.422 19.12 0 37.38-8.551 45.38-15.403zm135.24 94.473h40.25v-61.363l-.58-20.547h1.71c11.42 20.258 26.27 27.398 41.96 27.398 11.99 0 22.83-4.859 29.4-14.84 6.85-10.269 6.85-21.98 6.85-31.398V333.59h-39.97v97.332c0 9.129-.28 22.547-13.7 22.547-9.41 0-14.55-4.86-25.67-14.848V333.59h-40.25zm228.3-119.594c0 22.84-.28 40.25-20.25 40.25-18.84 0-18.56-21.129-18.27-40.25zm-38.52-22.547c-.29-15.41-.29-41.382 27.68-41.382 12.27 0 22.26 2.293 40.25 11.14l4.28-30.258c-15.42-5.421-27.97-9.992-47.95-9.992-18.56 0-49.09 4-58.23 38.821-2.86 11.14-3.71 29.109-3.71 30.261 0 26.539 0 51.36 10.28 68.199 11.7 19.418 33.96 21.399 46.23 21.399 24.55 0 36.25-10.258 43.67-21.399 9.14-13.41 9.14-27.679 9.14-66.789zm110.66 83.918h38.24v-34.25h1.15c14.26 33.102 30.54 37.672 45.09 38.243v-52.231c-16.84 0-27.4 0-43.68-13.699V333.59h-40.8zm192.62-61.371c0 22.84-.28 40.25-20.26 40.25-18.84 0-18.56-21.129-18.26-40.25zm-38.52-22.547c-.3-15.41-.3-41.382 27.68-41.382 12.27 0 22.26 2.293 40.24 11.14l4.29-30.258c-15.42-5.421-27.98-9.992-47.95-9.992-18.56 0-49.1 4-58.23 38.821-2.86 11.14-3.71 29.109-3.71 30.261 0 26.539 0 51.36 10.28 68.199 11.7 19.418 33.95 21.399 46.24 21.399 24.54 0 36.24-10.258 43.66-21.399 9.13-13.41 9.13-27.679 9.13-66.789zM1971.81 1658.61v-115.09c87.97.41 104.03 6.64 104.03 60.48 0 50.43-28.97 54.61-61.24 54.61zm0-350.48h47.96c44.8 0 65.67 21.1 65.67 66.4 0 30.48-9.4 49.89-27.91 57.68-13.36 5.23-50.32 5.72-85.72 5.77zm47.96-107.73h-185.94v563.72h189.63c46.68 0 94.53-2.89 128.3-23.8 39.76-24.29 63.54-70.86 63.54-124.51 0-54.45-22-98.1-57.84-118.34 33.97-16.46 69.64-56.47 69.64-126.63 0-39.12-5.38-84.49-45.3-124.4-42.03-42.83-91.45-46.04-162.03-46.04m490.92 450c-46.7 0-52.68-37.28-52.68-69.77V1399.1c0-60.72 13.89-83.3 51.26-83.3 47.39 0 51.25 37.72 51.25 83.3v181.53c0 43.41-3.34 69.77-49.83 69.77m-4.98-450.64c-32.3 0-140.16 8.25-171.84 114.42-12.96 42.12-13.97 93.63-13.97 108.41v140.25c0 42.34 5.01 104.12 48.35 151.7 39.74 44.07 97.46 53.32 138.88 53.32 64.15 0 111.66-17.65 145.24-53.97 33.46-35.91 48.4-88 48.4-168.85v-126.72c0-79.07-13.82-126.33-47.67-163.14-33.99-36.78-83.58-55.42-147.39-55.42m559.29.64h-141.67v222.33l-178.37 341.39h152.7l71.69-141.08c3.64-7.28 14.8-31.31 22.97-49 2.6 5.49 5.15 10.75 8.62 17.86 3.48 7.17 7.91 16.26 14.24 29.44l68.69 142.78h151.11L3065 1427.24zm375.88.55c-87.82 0-148.77 18.09-200.5 110.57l-4.79 8.57 106.91 70.98 5.04-11.57c18.03-41.41 49.43-64.22 88.4-64.22 5.99 0 58.58 1.35 58.58 47.99 0 30.81-14.59 37.49-92.08 67.78-80.52 31.19-152.83 68.22-152.83 177.12 0 95.61 70.37 157.39 179.27 157.39 77.97 0 135.47-31.07 180.95-97.79l6.05-8.87-104.14-68.85-5.44 10.4c-12.58 24.07-41.14 52.19-80.24 52.19-46.5 0-50.11-30.25-50.11-39.53 0-26.77 21.48-39.64 58.59-52.84l65.73-24.02c39.49-14.37 74.32-38.45 93.15-64.43 7.18-9.57 30.96-45.3 30.96-97.25 0-24.35 0-98.42-78.51-145.98-31.41-18.99-76.44-27.64-104.99-27.64m-2955.169-155.7V931.031c87.309.41 103.254 6.59 103.254 60.028 0 50.051-28.754 54.191-60.781 54.191zm0-347.852h47.598c44.464 0 65.175 20.942 65.175 65.911 0 30.261-9.32 49.523-27.699 57.25-13.258 5.179-49.937 5.679-85.074 5.722zm47.598-106.918H348.766v559.49h188.207c46.328 0 93.82-2.85 127.343-23.61 39.461-24.11 63.059-70.33 63.059-123.58 0-54.042-21.836-97.358-57.406-117.448 33.719-16.344 69.121-56.051 69.121-125.684 0-38.828-5.344-83.859-44.961-123.476-41.715-42.5-90.762-45.692-160.82-45.692m446.765 454.04V917.832c55.256.02 64.946.309 79.146 5.25 27.81 9.809 32.9 28.367 32.9 61.387 0 38.361-13.47 48.701-28.02 54.161-15.41 5.54-28.31 5.87-84.026 5.89m276.136-454.04h-152.8l-101.79 219.7h-21.546v-219.7H841.668v559.49h184.542c62.45 0 208.71 0 208.71-166.958 0-75.141-32.99-125.282-98.11-149.242zm325.13 0h-267.29v69.571h62.98v421.089h-62.98v68.83h267.29v-68.83h-63.71V661.52h63.71zm265.55 1.071c-61.16 0-108.4 20.281-140.4 60.301-30.9 39.398-37.1 85.75-37.1 147.82v138.519c0 45.618 0 114.559 56.28 166.379 43.69 39.8 95.9 43.13 141.41 43.13 105.33 0 176.1-67.69 176.1-168.438V968.82H1911.4l-.46 9.961c-1.77 38.319-18.58 56.159-52.91 56.159-36.59 0-52.21-20.81-52.21-69.6V804.551c0-71.949 14.94-97.449 57.08-97.449 42.21 0 48.03 27.089 48.03 56.378v24.36h-59.86v105.801h192.11V599.898h-67.55l-12.42 30.18c-16.28-17.316-45.2-38.527-116.32-38.527m478.17 219.359h92.89l-46.74 191.57zm286.99-220.43h-138.12l-27.1 106.918H2299.1l-27.83-106.918h-137.98l157.79 559.49h159.38zm255.13 117.911h22.71c46.48 0 84.95 7.597 84.95 101.058 0 9.25.37 21.27.73 33.289.37 11.782.73 23.563.73 32.621 0 60.641-1.27 105.403-17.81 129.211-18.25 26.5-37.76 28.13-91.31 28.23zM2736.1 590.48h-10.99v559.49h141.34c138.1 0 185.43-28.43 217.03-74.32 26.82-39.4 34.16-82.13 34.16-198.83l-.74-91.629c0-82.562-26.91-138.101-79.98-164.961-39.78-20.261-72.94-24.339-119.01-28.242-15.78-1.508-89.05-1.508-181.81-1.508m876.29 0h-399.84v559.49h399.84v-120.1h-260.7v-92.268h167.7V817.5h-166.24V712.781h259.24zM4807.24 1844.5c10.22-2.7 16.52-6.27 26.88-5.12 8.09.91 14.07 5.93 20.51 6.39 22.4 1.67 40.33-13.43 40.97-33.3.64-20.53-14.06-33.08-30.7-34.54-8.63-.77-17.32 5.14-26.93 3.84-4.7-.64-18.94-7.91-16.66-19.21 2.52-12.25 34.55-18.08 35.87-34.57.86-12.6-7.55-19.31-6.37-28.16 1.42-10.97 19.5-19.35 25.61-33.3 3.28-7.55 3.57-14.48 3.82-25.6 45.7-14.93 90.78-30.44 131.9-49.94-4.31-41.38-7.7-83.65-11.54-125.48-51.43-5.78-110.63-12.64-169.02-15.36-32.06-1.47-63.76 1.83-78.1-16.64 12.26-3.13 27.01-3.72 39.7-6.42 11.34-11.25 16.42-28.79 26.85-40.97-7.25-48.61-11.66-100.12-17.88-149.81 58.88-8.92 119.06-16.61 180.51-23.03 3.53-11.84 16.98-20.83 19.21-32.01 2.01-10.19-1.44-27.17-2.57-40.96-7.06-89.64-17.79-193.31-23.03-281.689-72.44 8.211-141.85 19.5-213.84 28.18-7.6-51.289-12.03-105.762-19.19-157.512 16.44-15.559 37.71-26.289 37.12-58.879 7.48-14.039 21.27-28.012 16.67-49.961 2.81-6.539 11.46-7.277 11.51-16.609 16.69 5.308 36.56 12.129 57.61 24.301 12.57 7.281 42.44 25.441 40.99 39.699-1.96 18.691-38.32 16.019-61.45 17.93 24.8 102.332 121.24 133.3 215.06 166.449 31.17 10.98 63.51 21.422 89.63 37.101 8.53 5.149 14.29 14.211 24.36 16.66 21.71-81.3 56.99-186.878 44.79-291.929-10.12-86.981-53.29-145.301-117.78-184.36-7.8-4.679-21.89-13.3-28.18-14.062-12.16-1.52-24.78 6.98-37.13 7.672-2.49 5.461 5.89 7.449 8.95 10.238 9.65 8.77 22.84 23.871 24.33 42.27 2.57 31.679-25.16 56.531-60.16 42.222-10.65-4.34-21.88-14.66-33.29-23.043-29.6-21.707-73.34-44.179-107.57-57.629.36-20.777-.32-40.597-8.95-52.461 2.58-16.558.89-32.269-6.42-43.539-4.53-7.058-14.58-9.019-19.21-16.66-5.17-8.551-1.88-18.75-5.12-30.73-16.34-7.25-42.27-19.278-64-16.637-16.88 2.09-44.47 25.848-46.09 46.09-2.21 28.109 24.72 46.656 33.3 67.848-31.46 1.371-69.96-13.7-101.15-24.329-80.69-27.371-159.37-61.16-209.99-115.211-17.67 73.36-77.8 112.122-139.57 151.059-95.39 60.152-176.15 122.981-244.52 211.262-13.15 16.98-24.11 37.519-38.44 52.508-6.81 7.132-24.41 18.363-32 17.941-39.08-2.109-26.61-67.43-33.28-97.328-16.29 1.617-29.45 13.16-40.97 23.058-34.25 29.329-59.32 75.719-62.75 135.75-4.53 79.61 24.77 146.942 56.36 199.719 32.86 54.941 76.69 99.121 121.61 133.131 5.73-65.55 47.93-96.959 93.48-130.6 42.71-31.511 93.38-63.3 94.77-128.031.42-21.32-8.72-46.437-14.11-64-10.44 9.211-24.16 15.09-35.87 23.031-4.39-3.699-9.04-7.16-14.07-10.269 31.17-38 84.59-95.391 145.97-111.359 55.94-14.532 105.43 12.57 128.05 47.378-24.5 6.079-52.31.739-70.45 10.219-14.43 7.602-15.36 23.43-26.88 33.301 7.38 30.172 10.98 64.148 17.94 94.762-18.89 8.008-27.32 26.476-33.3 47.359-23.4 8.207-27.05 36.117-32.02 62.75-14.46.32-28.06 4.539-43.52 6.399-14.61 1.789-33.67-.051-44.82 5.121-14.97 6.961-15.34 27.859-28.15 37.139 20.7 102.6 43.15 203.5 64 306 20.8-1.82 38.42-6.79 60.18-7.69.76 17.54 22.42 25.75 29.43 37.14 2.57 4.17 1.49 9.97 3.87 14.09 9.34 16.29 29.84 23.99 44.82 34.55 3.74 5.66 5.48 12.11 10.21 16.66 10.88 10.44 25.61 10.54 41 16.64 13.35 5.32 22.52 16.83 34.57 19.21 0 11.1 3.53 18.65 3.85 29.43 37.88-2.18 75.44-11.57 111.39-11.52 3.75 11.1-8.19 9.07-12.82 10.27-87.79 22.54-175.83 46.07-252.23 79.37 6.52 42.55 16.73 81.42 24.31 122.9 79.41 15.68 187.22 26.27 277.86 20.49 7.06 15.43-3.87 14.48-16.66 23.06-36.24 24.28-74.34 74.24-48.64 136.99 19.14 46.83 75.45 84 144.67 78.11 58.04-4.92 103.89-34.5 122.9-83.23m-96.02 62.73c-78.81 22.17-165.64-29.43-158.76-107.55 3.55-40.38 28.45-60.77 57.61-78.09 2.99 14.09 3.7 30.43 7.67 43.52-8.16 12.13-17.18 19.92-19.19 35.87-7.67 60.57 68.17 88.23 116.54 64 18.01-9.02 23.81-30.65 44.79-34.57.32 13.77 11.29 16.88 23.06 19.21-14.98 28.84-40.83 48.93-71.72 57.61m1.29-57.61c-43.37 29.45-123.2-9.48-90.9-61.45 1.08 45.82 63.56 65.22 101.15 39.69 4.63 10.32-3.38 17.1-10.25 21.76m66.58-11.52c.37-3.74-2.89-3.94-2.55-7.69 2.11-5.56 10.95-4.39 11.52-11.52-.32-21.07 18.62-31.07 34.57-21.78.27 1 .03 2.55 1.28 2.57-2.7 25.04-20.46 35.04-44.82 38.42m-42.24-64c-1.74 30.36-23.6 49.86-47.39 52.49-70.4 7.69-52.88-88.78-67.85-137.02 20.68-3.19 44.89-2.89 65.3-6.4 2.33 18.87 4.87 41.53 7.67 62.75 2.6 19.58 2.47 44.06 20.51 49.94 5.85-38.57-8.19-77.58-10.24-116.51 7.79.98 11.98-1.69 19.18-1.3.79 33.99 14.7 62.88 12.82 96.05m0 52.49c-4.98-5.69-1.2-16.05 1.25-21.79 8.45-2.2 24.47-7.74 29.45 1.28-3.73 13.33-14.63 19.5-30.7 20.51m104.99-15.39c2.28-14.8 27-15.29 29.43 2.57-6.22 14.9-32.61 17.96-29.43-2.57m-84.48-24.31c-2.06-3.11-4.81-5.46-3.88-11.54 10.81-11.98 29.82-16.98 48.67-11.51-3.63 19.01-22.84 22.41-44.79 23.05m-7.72-44.82c6.93.77 12.93 2.43 15.36 7.68-5.39 1.42-9.04 4.63-14.09 6.39.74-5.83-2.25-7.96-1.27-14.07m30.72-11.53c11.62-13.53 29.58-20.78 53.76-21.76 10.71 32.36-43.69 51.62-53.76 21.76m-12.81-8.95c-6.76-5.59-14.78-9.97-23.01-14.09-.59-11.39-3.58-20.36-3.87-32 14.99-3.28 26.51-6.91 44.84-8.97-8.14 11.42-1.13 26.44 2.55 37.13-7.43 5.39-13.5 12.1-20.51 17.93m34.6-43.54c-3.24-25.51 35.35-20.8 52.48-29.45 5.47 25.26-49 57.14-52.48 29.45m165.15-88.34c-59.03 24.19-120.88 45.17-188.21 58.89-126.49 25.82-260.25 31.7-395.63 11.51-14.85-2.2-35.84-.09-39.69-12.79 79.98 8.92 172.38 22.54 262.48 15.37 135.64-10.81 257.77-40.8 362.32-80.67 6.23-2.35 13.28-8.6 20.49-5.12-2.21 9.71-14.8 9.98-21.76 12.81m-471.17 65.31c-54.79-2.55-108.65-7.87-153.66-17.94-6.86-24.7-11.03-52.12-16.64-78.09 89.32-36.29 187.11-69.05 299.63-84.51 111.53-15.34 238.85-5.61 354.65 8.97 2.75 27.1 5.49 54.27 7.67 81.91-134.3 56.11-301.88 98.48-491.65 89.66m-501.9-935.969c.13-1.012 4.22-3.871 3.83-1.27-2.65 37.117-28.8 85.949-5.1 117.778 35.85-286.34 316.16-328.27 462.2-504.438 51.31 38.027 122.59 55.348 192.05 76.809 60.77 18.769 123.03 35.039 179.27 56.34 116.41 44.101 204.38 103.449 245.81 224.05 20.83-17.789 1.5-50.769-8.97-72.968-7.96-16.903-22.1-31.883-20.46-48.661 18.58 6.571 28.84 39.399 46.07 47.36.61-29.641-14.85-43.172-23.01-64 23.89-6.86 28.28 32.519 43.49 38.418 9.95-30.43-17.91-47.457-23.03-66.598 20.78 9.949 34.45 27.027 46.12 46.09 16.19-27.191-19.65-48.879-33.33-66.57.74-5.661 4.14-8.68 3.82-15.36 109.04 44.66 90.37 246.348 58.96 367.469-86.91-43.738-205.9-55.328-258.65-133.148 9.97 1.929 13.91 9.949 26.88 8.937-.03-10.66-9.29-12.027-6.4-25.578 14.09 2.16 22.57 16.687 35.82 15.34 7.21-16.27-31.34-18.77-23.01-35.852 24.9 1.992 28.5 32.082 55.04 28.16-2.21-22.468-20.27-40.168-34.57-55.039-41.32-43-107.25-82.871-183.09-87.058-98.46-5.442-176.77 33.398-183.11 121.636-2.85 39.692 7.84 74.903 12.81 111.391 29.19 213.321 58.56 435.491 88.36 646.581-4.44 1.96-11.66 1.13-17.94 1.28-22.1-181.86-51.89-379.21-74.24-562.099-7.77-63.422-21.27-126.68-24.33-188.192-1.33-26.308 2.23-44.539 8.97-61.468 3.97-10.032 13.57-19.782 10.24-30.731-14.48 6.149-21.83 23.18-28.18 37.149-19.92 43.761-9.12 95.07-1.3 145.961 33.62 218.22 58.39 447.08 89.63 660.65-21.19 4.44-50.77 7.21-70.39 8.97-30.49-207.27-68.32-432.58-99.88-641.468-4.7-30.942-6.25-64.192-14.11-92.184-12.57-44.937-48.79-87.449-90.88-101.117-15.76-5.172-34.11-6.473-51.22-5.172-68.02 5.27-121.87 47.66-162.62 88.36-20.46 20.511-39.23 44.25-56.33 69.14-17.28 25.141-36.51 52.25-46.09 79.391-4.73 13.379-10.22 31.762 1.29 43.551 15.44-30.68 32.94-59.25 52.49-85.813-2.33 5.801-5.05 11.152-3.82 20.481 11.42-8.161 17.12-22.118 29.43-29.45-.59 11.879-9.83 22.61-3.85 33.301 14.26-10.558 19.48-36.808 46.11-30.73-8.74 62.289-56.43 87.968-94.77 121.629-32.3 28.351-63 55.41-81.94 94.761-42.42-44.789-86.16-98.968-111.37-165.199-13.26-34.82-21.78-77.242-15.36-117.789 4.51-28.523 16.59-55.031 28.15-75.523 3.92-6.93 6.25-16.36 14.09-19.207 1.54 15.757-25.75 45.777-8.94 51.207 8.67 2.82 9.16-10.071 14.06-7.661-1.62 12.661.42 16.192-1.3 26.883 5.3-.98 14.71-10.441 16.67-6.422-.64 8.84-6.64 25.211 1.29 30.723 10.91-1.961 13.99-25.094 21.74-21.73-3.24 19.058-8.99 49.046 2.55 61.449 6.66-22.391 14.82-43.219 24.35-62.75m713.16 724.699c12.08.27 25.73-.98 33.28 3.82-14.46-.63-18.08 1.62-32 1.3.1-2.23-.3-3.99-1.28-5.12m-225.35 0c0 3.02-3.48-.46-2.57-2.57-10.86-59.98-20.15-121.51-32.01-180.52-61.69 7.06-127.93 16.18-185.63 23.04-20.21-92.04-38.52-185.98-57.61-279.09 65.38-9.751 133.67-16.571 197.15-28.18-11.61-73.75-25.53-145.211-37.09-218.961 27.42-7.11 62.28-6.84 89.58-14.09 35.73 230.211 75.25 463.351 108.87 691.401-27.84 2.06-53.2 6.57-80.69 8.97m221.51-30.73c-29.16-230.77-62.9-463.739-90.91-691.372 28.15-3.476 54.23-9 83.26-11.57 9.61 74.004 17.18 150.113 28.13 222.781 75.89-7.668 144.18-19.328 216.36-28.148 9.56 95.459 17.82 192.199 25.63 289.379-67.6 10.9-141.13 15.93-207.41 28.15 7.57 61.99 14.6 124.55 23.05 185.66-25.26 2.92-49.64 6.69-75.54 8.95-1.62-.52-2.65-1.64-2.57-3.83m-263.75-6.39c-5.39-8.33-11.08-35.19-2.58-44.82 4.36 12.38 7.3 32.71 7.7 44.82zm-38.43-64.03c17.01 6.84 21.76 42.35 12.82 56.33-27.91 2.04-28.33-43.98-12.82-56.33m-53.75-1.3c-6.74-18.4 3.52-52.21 25.58-37.12 16.07 11 4.01 46.71-5.1 56.34-5.93-6.6-16.22-7.53-20.48-19.22m53.75-21.75c-1.2-17.99-11.93-26.49-26.9-30.73 17.2-.52 36.66-4.9 49.96-5.12 1.62 18.84 9.73 38.07 7.7 56.33-8.07-9.02-15.64-18.52-30.76-20.48m-87.05-23.06c8.6.9 18.99-3.14 24.33-1.28-5.91 5.22-6.81 15.39-12.82 20.51-5.61-4.65-10.88-9.6-11.51-19.23m1.27-375.138c1.1-12.872 24.85-14.141 42.24-15.372-.85 6.45 2.18 8.918 1.28 15.372-13.09.949-45.28 20.777-43.52 0m17.94-32.032c-1.28-14.871 9.36-17.941 16.63-24.308.13 8.867 3.02 14.929 3.85 23.039-4.56 5.219-15.22 6.34-20.48 1.269m403.32-212.511c14.31-.637 16.32 17.441 3.82 20.48-2.26-5.32-7.06-13.84-3.82-20.48m-40.95-72.969c13.97 17.609-5.9 17.98-17.96 32-9.04 10.512-11.12 18.859-7.69 33.269-18.9 1.59-34.97 6.032-53.76 7.7 12.27-38.52 40.94-60.618 79.41-72.969m2.53 57.601c4.04-27 38.76-35.871 64-33.3 12.59 27.89-38.25 47.929-64 33.3m26.9-61.453c13.79-1.277 36.9-3.476 48.64 1.301-14.65 6.371-40.92 19.043-48.64-1.301M4829 416.879c-.27-2.43 1.47-2.82 1.3-5.098 5.07.489 9.31 1.789 12.82 3.848.29 2.402-1.45 2.793-1.28 5.121-5.73.121-7.96-3.191-12.84-3.871m-37.12-12.789c-26.66-2.988 10.68-48.758 26.9-46.09 22.3 15.801-8.94 48.121-26.9 46.09m-15.34-89.61c32.81-2.128 28.11 49.25-3.85 42.219-22.27-4.879-18.84-40.801 3.85-42.219" style="fill:#fff;fill-opacity:1;fill-rule:nonzero;stroke:none" transform="matrix(.13333 0 0 -.13333 0 296.773)"/><path d="M4403.93 1629.39c-1.13-22.37-8.31-49.66-12.79-72.96-2.38 1-4.66 2.13-7.67 2.54 5.14 23.01 8.5 47.83 14.06 70.42zm-23.03-1.28c3.02-.41 4.81-2 8.95-1.27-5.44-21-7.89-45.01-14.07-65.3-3.92-.93-3.77 2.21-7.67 1.27 4.53 21.47 9.34 42.69 12.79 65.3m-20.49-3.82c3.92.92 4.65-1.31 7.69-1.28.2-8.65-3.21-18.77-5.15-28.18-1.56-7.91.4-23.33-11.49-21.78 1.86 18.23 6.77 33.35 8.95 51.24m222.77-17.93c.88-6.42-1.17-9.93-1.27-15.37-4.07 4.12-12.91 9.44-19.19 3.85 1.6-11.2 15.27-10.36 19.19-19.21 5.46-26.49-26.47-30.73-42.24-20.49-.18 5.3 2.22 8.02 1.27 14.07 6.12-3.01 21.17-12.69 24.33 0-3.16 7.94-12.94 9.26-17.94 15.39-8.2 22.71 19.36 31.24 35.85 21.76m21.79-1.28c4.65-.88 9.31-1.79 15.36-1.3 2.21-17.87-12.76-39.03-1.3-49.92 12.6 7.48 8.73 31.39 12.82 47.37 5.09-.46 12.27 1.18 15.36-1.27-2.01-15.47-.07-52.76-17.94-57.61-40.01-10.93-30.89 36.92-24.3 62.73m61.47-7.69c27.57 6.57 58.81-20.66 26.88-32.03 7.6-6.02 7.99-19.28 8.94-31.97-6.61.17-12.74.93-17.93 2.52-1.37 8.87 4.14 24.6-6.4 24.36-2.94-6.01-2.77-15.17-3.84-23.06-6.72-.74-9.68 2.28-16.64 1.3 3.21 19.4 5.34 39.89 8.99 58.88m12.77-25.61c7.57-1.15 10.9 1.94 11.54 7.7-1.52 3.6-6 4.23-10.24 5.12-.37-4.34-2.04-7.35-1.3-12.82m47.38 19.22c14.07-.47 25.19-3.85 38.4-5.12.69-4.95-2.28-6.25-1.27-11.52-7.77.34-15.42.81-21.74 2.55-1.98-1.87-2.69-5-2.6-8.97 3.88-4.26 12.97-3.29 20.49-3.83-.22-4.01.88-9.4-1.28-11.54-7.81-.98-11.98 1.7-19.21 1.31-3.99-.3-2.15-6.38-2.52-10.27 4.19-4.32 14.95-2.09 21.73-3.82.79-5.47-.9-8.49-1.25-12.82-12.61 2.35-27.54 2.37-39.71 5.12 3.01 19.6 5.02 40.23 8.96 58.91m192.06-21.78c-3.24-24.51-2.97-52.51-8.97-74.27-11.34 2.06-4.92 21.68-3.82 33.3 1.2 12.86 2.86 26.73 3.82 37.12-.34 2.08 1.2 2.23 1.27 3.85zm14.09-5.11c3.53-9.84-1.18-23.32-2.55-35.87-1.2-10.78 3.58-29.5-8.97-30.72-2.69 16.17 3.73 44.62 5.1 66.59zm20.48-11.53c-.22-18.13-4.14-32.57-3.85-51.22h-8.97c.91 17.92 2.99 34.58 5.15 51.22zm-784.87-257.35c13.38-22.25 28.57-46.78 25.61-85.79-4.29-56.55-41.12-115.82-99.85-120.36-36.22-2.77-75.77 6.62-113.99 11.52-37.22 4.78-74.25 10.73-108.82 15.36-6.42.05 1.76 6.81-2.55 8.99-3.6 2.36-11.98-.04-15.36 2.55 8.48 31.64 15.97 64.25 25.58 94.76 8.99-.84 15.73-3.95 25.65-3.85 19.14 67.02 35.9 136.5 53.76 204.84-10.97 1.01-7.84 16.05-24.33 11.55 6.94 30.6 16 59.12 23.04 89.63 40.96-3.88 88.6-10.02 137.02-15.39 43.47-4.83 92.01-12.06 112.66-35.85 42.51-49 25.39-155.64-38.42-177.96m-10.27 24.33c39.31 19.45 70.82 104.11 34.6 144.69-20.7 23.18-63.61 23.82-103.72 29.43-40.18 5.63-80.86 9.48-117.79 15.36-7.08-18.94-11.63-40.45-16.63-61.45 9.01-.81 19.18-.45 25.58-3.83-20.14-81.86-40.58-163.43-62.73-243.26-9.38.39-17.05 2.57-26.9 2.52-4.49-21.49-11.4-40.62-15.32-62.7 32.08-3.38 64.84-8.73 98.58-12.82 50.57-6.15 114.55-23.79 151.08 3.83 34.21 25.92 66.5 110.75 29.46 153.65-7.97 9.22-21.79 13.7-26.91 25.61 10.17 4.02 20.78 4.04 30.7 8.97" style="fill:#fff;fill-opacity:1;fill-rule:nonzero;stroke:none" transform="matrix(.13333 0 0 -.13333 0 296.773)"/><path d="M4044.16 1341.31c6.25 33.03 14.04 64.47 23.03 94.76 28.33-1.3 46.93-17.55 47.39-40.97.69-36.68-33.66-52.88-70.42-53.79m30.73 21.76c17.52 2.7 28.91 29.53 16.64 46.12-3.61-1.06-3.34 1.79-6.4 1.27-2.01-17.2-7.84-30.58-10.24-47.39m1217.63-211.25c56.06-63.17 55.77-221.39-55.06-221.511-35.43-.02-76.03 8.062-115.24 14.089-39.33 6.082-79.24 10.153-113.96 15.364-3.28 3.699.59 7.968 0 12.82-4.39 1.59-11.49.418-15.34 2.566 1.57 34.262 5.73 65.962 7.67 99.852 10.83.59 18.28-2.23 28.15-2.55 7.16 69.67 12.3 141.34 16.67 213.82-2.65 2.91-11.06.05-14.09 2.55-.27 4.14 2.27 5.41 1.29 10.24-3.13 2.45-10.21.88-14.11 2.57 2.48 31.66 4.49 63.83 7.72 94.73 37.49-6.1 91.05-9.26 139.54-16.64 54.23-8.26 104.56-11.27 133.15-40.97 18.28-18.94 35.75-60.47 34.58-99.87-1.15-38.35-12.52-73.02-40.97-87.06m17.91 112.66c.05 31.02-18.11 63.47-38.4 75.55-54.37 32.44-159.54 22.52-227.9 38.42-.27 1.54-1.42.78-2.55 0-.98-21.69-2.2-43.08-5.14-62.73 8.45-3.09 20.78-2.28 29.47-5.15-7.49-85.12-11.12-174.11-20.5-257.35-10.54-.27-17.65 2.89-28.18 2.6-1.47-22.03-3.16-43.81-5.1-65.332 53.47-10.09 115.16-14.527 172.82-23.058 20.34-2.961 40.21-6.692 57.63-3.821 67.31 11.082 83.9 125.411 38.42 174.141-10.93 11.69-28.91 19.73-37.12 32.01 49.13 5.48 66.45 43.93 66.55 94.72" style="fill:#fff;fill-opacity:1;fill-rule:nonzero;stroke:none" transform="matrix(.13333 0 0 -.13333 0 296.773)"/><path d="M5150.39 1203.03c2.04 32.95 3.68 66.33 6.42 98.6 72.07 3.5 83.34-106.74-6.42-98.6m25.63 20.51c23.16.12 32.42 47.44 2.53 47.36-1.06-15.58-1.6-31.7-2.53-47.36m-1169-38.41c8.82 36.41 17.05 73.41 26.9 108.82 1.08.24 1.23-.5 1.28-1.28 30.85-.93 49.98-16.86 51.21-42.24 2.2-44.65-39.84-60.89-79.39-65.3m34.6 24.3c18.91 5.98 34.52 29.43 23.03 53.79-3.58 1.52-7.38 2.87-11.52 3.82-2.96-19.26-12.22-38.99-11.51-57.61m1101.09-172.84c1.86 38.69 4.58 76.5 6.4 115.24 48.44 5.88 91.56-62.34 48.64-97.33-13.6-11.1-30.49-13.99-55.04-17.91m26.88 23.03c18.55 6.6 33.72 26.86 23.06 51.24-6.13 3.7-12.3 7.33-20.49 8.94-.95-19.11-4.63-42.29-2.57-60.18m-640.17-380.261c-2.16-2.109-1.03-7.5-1.27-11.519-2.85-2.668-6.2 1.351-11.52 0-4.48-10.711 3.63-19.231 3.82-29.449 4.44.269 2.33 7.078 3.82 10.238 6.5.91 8.95-2.18 15.39-1.27-.32-13.359-5.8-21.468-11.51-29.461.31-7.789 3.45-12.757 5.12-19.179-7.48 1.472-18.4-.489-20.49 6.371-37-16.93-44.69 41.09-15.36 47.39-7.99 22.52 13.87 38.372 32 26.879m-23.03-61.461c.49 4.34-.79 16.84-6.42 19.211-4.07-6.609-3.48-19.347 6.42-19.211m-240.73-2.546c-1.49-6.614-4.16-12.082-6.42-17.93-1.61 4.457-19.84 20.308-21.75 5.137-.98-7.911 12.96-12.25 15.36-23.059 6.59-29.328-34.43-47.578-52.49-20.5.98 7.148 4.49 11.73 6.4 17.961 4.02-9 24.58-22.789 26.9-5.121 1.11 8.672-13.62 14.621-15.36 25.582-4.26 26.66 28.37 39.297 47.36 17.93m65.3-16.641c-.27-6.57-3.38-10.27-3.85-16.641-6.2-.25-10.41 1.52-14.06 3.84-10.34-17.422-13.68-41.851-21.79-61.469-6.78.457-11.49 3.008-17.88 3.84 5.14 22.11 13.28 41.321 19.18 62.731-3.65 2.769-10.73 2.109-14.11 5.148 1.84 5 3.31 10.34 5.14 15.36 16.91-3.161 30.09-10.02 47.37-12.809m60.19-16.641c-.64-6.199-2.36-11.32-3.85-16.66-8.46 2.211-17.5 3.871-25.61 6.422-2.03-3.551-2.23-8.891-3.87-12.844 6.54-3.75 14.82-5.656 23.08-7.668-.81-5.59-2.13-10.679-3.84-15.34-8.07 1.301-15.12 3.68-23.04 5.102-3.43-3.41-4.07-9.613-5.14-15.363 7.2-3.899 16.76-5.418 25.6-7.668-1.59-5.66-3.33-11.18-5.12-16.672-14.68 3.262-27.52 8.332-43.52 10.269 5.84 28.301 14.19 54.102 21.76 80.641 15.98-1.957 27.32-8.5 43.55-10.219m49.92-11.531c1.03-25.48 1.74-59.957 3.85-83.23-6.08-3.868-12.91 2.453-20.49 1.3-1.32 2.539.84 10.481 0 16.629-2.67 2.891-9.53 1.571-12.81 3.832-4.34-3.289-5.27-10.101-7.69-15.34-6.25 1.391-12.53 2.77-19.19 3.821 11.66 26.289 25.29 50.699 37.12 76.82 6.96-.711 13.36-2.012 19.21-3.832m-23.03-48.66h5.12c3.19 4.512 3.8 18.351 1.27 24.332-.71-8.922-9.09-16.242-6.39-24.332m43.51-39.68c3.31 27.442 9.07 52.41 11.54 80.641 14.88-1.352 32.96-1.078 41-8.949 20.09-19.719 6.91-64.121-16.69-75.539-13.77-.512-25.7.757-35.85 3.847m21.76 12.789c19.58.344 21.98 29.114 16.66 46.094-2.82 1.469-5.27 3.309-10.26 2.566-1.94-16.386-4.61-32.066-6.4-48.66m106.28 53.774c-1.35-5.492-.49-13.141-2.55-17.91-7.62 1.367-16 1.929-23.06 3.839-4.01-2.371-3.74-9.043-3.82-15.382 5.49-3.43 15.41-2.5 23.01-3.829-.49-5.46 1.27-13.179-1.25-16.66-8.99-.879-14.06 2.211-23.06 1.282-2.32-9.59-3.01-20.864-3.82-31.981-6.37.93-13.84.68-19.21 2.52 2.82 27.539 4.61 55.988 8.97 81.988 16.1-.117 28.99-3.43 44.79-3.867m43.54-2.543c6.78-27.367 12.37-55.938 17.93-84.508-8.89-.152-16.05.07-20.51 1.269-1.69 3.852-1.29 9.801-1.27 15.36-3.85 1.719-9.8 1.332-15.36 1.301-2.18-4.211-3.41-9.43-3.85-15.36h-20.49c8.43 27.828 16.4 56.16 25.61 83.207 7.3.883 10.66-2.148 17.94-1.269m-15.39-51.207h7.72c-.22 9.16-.74 18.027-3.85 24.297-.39-8.989-4.34-14.399-3.87-24.297m160.07 52.476c-.07-6.5 2.18-10.609 1.28-17.918h-15.37c-1.05-19.449 4.24-43.539 3.83-66.59-7.6.801-11.4-2.23-19.21-1.25-1.06 22.782-2.95 44.79-5.1 66.551-5.86.899-12.96-1.429-15.36 0 1 6.559-1.82 9.309-1.28 15.379 15.76 4.27 35.9 1.961 51.21 3.828m-69.15-6.406v-19.191c-4.93 4.339-20.29 11.839-23.03 0 7.27-14.09 28.39-13.032 29.45-33.27 1.15-22.812-27.01-38.812-48.64-23.062v20.461c7.42-7.418 27.34-15.508 28.15 0 .59 11.91-24.77 14.781-28.15 28.179-6.15 24.16 18.77 40.551 42.22 26.883" style="fill:#fff;fill-opacity:1;fill-rule:nonzero;stroke:none" transform="matrix(.13333 0 0 -.13333 0 296.773)"/></svg>